<!-- <svg width="175" height="30" viewBox="0 0 175 19" fill="none" xmlns="http://www.w3.org/2000/svg">
<path d="M10.688 9.36C11.664 9.568 12.448 10.056 13.04 10.824C13.632 11.576 13.928 12.44 13.928 13.416C13.928 14.824 13.432 15.944 12.44 16.776C11.464 17.592 10.096 18 8.336 18H0.488V1.152H8.072C9.784 1.152 11.12 1.544 12.08 2.328C13.056 3.112 13.544 4.176 13.544 5.52C13.544 6.512 13.28 7.336 12.752 7.992C12.24 8.648 11.552 9.104 10.688 9.36ZM4.592 7.968H7.28C7.952 7.968 8.464 7.824 8.816 7.536C9.184 7.232 9.368 6.792 9.368 6.216C9.368 5.64 9.184 5.2 8.816 4.896C8.464 4.592 7.952 4.44 7.28 4.44H4.592V7.968ZM7.616 14.688C8.304 14.688 8.832 14.536 9.2 14.232C9.584 13.912 9.776 13.456 9.776 12.864C9.776 12.272 9.576 11.808 9.176 11.472C8.792 11.136 8.256 10.968 7.568 10.968H4.592V14.688H7.616ZM20.2923 11.28C20.2923 9.904 20.5483 8.696 21.0603 7.656C21.5883 6.616 22.3003 5.816 23.1963 5.256C24.0923 4.696 25.0923 4.416 26.1963 4.416C27.1403 4.416 27.9643 4.608 28.6683 4.992C29.3883 5.376 29.9403 5.88 30.3243 6.504V4.608H34.4283V18H30.3243V16.104C29.9243 16.728 29.3643 17.232 28.6443 17.616C27.9403 18 27.1163 18.192 26.1723 18.192C25.0843 18.192 24.0923 17.912 23.1963 17.352C22.3003 16.776 21.5883 15.968 21.0603 14.928C20.5483 13.872 20.2923 12.656 20.2923 11.28ZM30.3243 11.304C30.3243 10.28 30.0363 9.472 29.4603 8.88C28.9003 8.288 28.2123 7.992 27.3963 7.992C26.5803 7.992 25.8843 8.288 25.3083 8.88C24.7483 9.456 24.4683 10.256 24.4683 11.28C24.4683 12.304 24.7483 13.12 25.3083 13.728C25.8843 14.32 26.5803 14.616 27.3963 14.616C28.2123 14.616 28.9003 14.32 29.4603 13.728C30.0363 13.136 30.3243 12.328 30.3243 11.304ZM41.3814 11.304C41.3814 9.912 41.6614 8.696 42.2214 7.656C42.7974 6.616 43.5894 5.816 44.5974 5.256C45.6214 4.696 46.7894 4.416 48.1014 4.416C49.7814 4.416 51.1814 4.856 52.3014 5.736C53.4374 6.616 54.1814 7.856 54.5334 9.456H50.1654C49.7974 8.432 49.0854 7.92 48.0294 7.92C47.2774 7.92 46.6774 8.216 46.2294 8.808C45.7814 9.384 45.5574 10.216 45.5574 11.304C45.5574 12.392 45.7814 13.232 46.2294 13.824C46.6774 14.4 47.2774 14.688 48.0294 14.688C49.0854 14.688 49.7974 14.176 50.1654 13.152H54.5334C54.1814 14.72 53.4374 15.952 52.3014 16.848C51.1654 17.744 49.7654 18.192 48.1014 18.192C46.7894 18.192 45.6214 17.912 44.5974 17.352C43.5894 16.792 42.7974 15.992 42.2214 14.952C41.6614 13.912 41.3814 12.696 41.3814 11.304ZM69.7126 18L65.6326 12.384V18H61.5286V0.24H65.6326V10.056L69.6886 4.608H74.7526L69.1846 11.328L74.8006 18H69.7126Z" fill="#222222"/>
<path d="M89.7566 18L86.2526 11.64H85.2686V18H81.1646V1.152H88.0526C89.3806 1.152 90.5086 1.384 91.4366 1.848C92.3806 2.312 93.0846 2.952 93.5486 3.768C94.0126 4.568 94.2446 5.464 94.2446 6.456C94.2446 7.576 93.9246 8.576 93.2846 9.456C92.6606 10.336 91.7326 10.96 90.5006 11.328L94.3886 18H89.7566ZM85.2686 8.736H87.8126C88.5646 8.736 89.1246 8.552 89.4926 8.184C89.8766 7.816 90.0686 7.296 90.0686 6.624C90.0686 5.984 89.8766 5.48 89.4926 5.112C89.1246 4.744 88.5646 4.56 87.8126 4.56H85.2686V8.736ZM107.717 18.192C106.405 18.192 105.221 17.912 104.165 17.352C103.125 16.792 102.301 15.992 101.693 14.952C101.101 13.912 100.805 12.696 100.805 11.304C100.805 9.928 101.109 8.72 101.717 7.68C102.325 6.624 103.157 5.816 104.213 5.256C105.269 4.696 106.453 4.416 107.765 4.416C109.077 4.416 110.261 4.696 111.317 5.256C112.373 5.816 113.205 6.624 113.813 7.68C114.421 8.72 114.725 9.928 114.725 11.304C114.725 12.68 114.413 13.896 113.789 14.952C113.181 15.992 112.341 16.792 111.269 17.352C110.213 17.912 109.029 18.192 107.717 18.192ZM107.717 14.64C108.501 14.64 109.165 14.352 109.709 13.776C110.269 13.2 110.549 12.376 110.549 11.304C110.549 10.232 110.277 9.408 109.733 8.832C109.205 8.256 108.549 7.968 107.765 7.968C106.965 7.968 106.301 8.256 105.773 8.832C105.245 9.392 104.981 10.216 104.981 11.304C104.981 12.376 105.237 13.2 105.749 13.776C106.277 14.352 106.933 14.64 107.717 14.64ZM120.886 11.28C120.886 9.904 121.142 8.696 121.654 7.656C122.182 6.616 122.894 5.816 123.79 5.256C124.686 4.696 125.686 4.416 126.79 4.416C127.734 4.416 128.558 4.608 129.262 4.992C129.982 5.376 130.534 5.88 130.918 6.504V4.608H135.022V18H130.918V16.104C130.518 16.728 129.958 17.232 129.238 17.616C128.534 18 127.71 18.192 126.766 18.192C125.678 18.192 124.686 17.912 123.79 17.352C122.894 16.776 122.182 15.968 121.654 14.928C121.142 13.872 120.886 12.656 120.886 11.28ZM130.918 11.304C130.918 10.28 130.63 9.472 130.054 8.88C129.494 8.288 128.806 7.992 127.99 7.992C127.174 7.992 126.478 8.288 125.902 8.88C125.342 9.456 125.062 10.256 125.062 11.28C125.062 12.304 125.342 13.12 125.902 13.728C126.478 14.32 127.174 14.616 127.99 14.616C128.806 14.616 129.494 14.32 130.054 13.728C130.63 13.136 130.918 12.328 130.918 11.304ZM141.975 11.28C141.975 9.904 142.231 8.696 142.743 7.656C143.271 6.616 143.983 5.816 144.879 5.256C145.775 4.696 146.775 4.416 147.879 4.416C148.759 4.416 149.559 4.6 150.279 4.968C151.015 5.336 151.591 5.832 152.007 6.456V0.24H156.111V18H152.007V16.08C151.623 16.72 151.071 17.232 150.351 17.616C149.647 18 148.823 18.192 147.879 18.192C146.775 18.192 145.775 17.912 144.879 17.352C143.983 16.776 143.271 15.968 142.743 14.928C142.231 13.872 141.975 12.656 141.975 11.28ZM152.007 11.304C152.007 10.28 151.719 9.472 151.143 8.88C150.583 8.288 149.895 7.992 149.079 7.992C148.263 7.992 147.567 8.288 146.991 8.88C146.431 9.456 146.151 10.256 146.151 11.28C146.151 12.304 146.431 13.12 146.991 13.728C147.567 14.32 148.263 14.616 149.079 14.616C149.895 14.616 150.583 14.32 151.143 13.728C151.719 13.136 152.007 12.328 152.007 11.304ZM169.328 18.192C168.16 18.192 167.12 17.992 166.208 17.592C165.296 17.192 164.576 16.648 164.048 15.96C163.52 15.256 163.224 14.472 163.16 13.608H167.216C167.264 14.072 167.48 14.448 167.864 14.736C168.248 15.024 168.72 15.168 169.28 15.168C169.792 15.168 170.184 15.072 170.456 14.88C170.744 14.672 170.888 14.408 170.888 14.088C170.888 13.704 170.688 13.424 170.288 13.248C169.888 13.056 169.24 12.848 168.344 12.624C167.384 12.4 166.584 12.168 165.944 11.928C165.304 11.672 164.752 11.28 164.288 10.752C163.824 10.208 163.592 9.48 163.592 8.568C163.592 7.8 163.8 7.104 164.216 6.48C164.648 5.84 165.272 5.336 166.088 4.968C166.92 4.6 167.904 4.416 169.04 4.416C170.72 4.416 172.04 4.832 173 5.664C173.976 6.496 174.536 7.6 174.68 8.976H170.888C170.824 8.512 170.616 8.144 170.264 7.872C169.928 7.6 169.48 7.464 168.92 7.464C168.44 7.464 168.072 7.56 167.816 7.752C167.56 7.928 167.432 8.176 167.432 8.496C167.432 8.88 167.632 9.168 168.032 9.36C168.448 9.552 169.088 9.744 169.952 9.936C170.944 10.192 171.752 10.448 172.376 10.704C173 10.944 173.544 11.344 174.008 11.904C174.488 12.448 174.736 13.184 174.752 14.112C174.752 14.896 174.528 15.6 174.08 16.224C173.648 16.832 173.016 17.312 172.184 17.664C171.368 18.016 170.416 18.192 169.328 18.192Z" fill="#3FD0D4"/>
</svg> -->

<svg width="286" height="30" viewBox="0 0 286 32" fill="none" xmlns="http://www.w3.org/2000/svg">
<g filter="url(#filter0_d_2_7)">
<path d="M8.67045 1.54545L12.8892 14.8068H13.0511L17.2784 1.54545H21.3693L15.3523 19H10.5966L4.57102 1.54545H8.67045ZM28.9567 19V5.90909H32.5874V19H28.9567ZM30.7805 4.22159C30.2408 4.22159 29.7777 4.04261 29.3913 3.68466C29.0107 3.32102 28.8203 2.88636 28.8203 2.38068C28.8203 1.88068 29.0107 1.4517 29.3913 1.09375C29.7777 0.730113 30.2408 0.548295 30.7805 0.548295C31.3203 0.548295 31.7805 0.730113 32.1612 1.09375C32.5476 1.4517 32.7408 1.88068 32.7408 2.38068C32.7408 2.88636 32.5476 3.32102 32.1612 3.68466C31.7805 4.04261 31.3203 4.22159 30.7805 4.22159ZM51.9425 9.64205L48.6186 9.84659C48.5618 9.5625 48.4396 9.30682 48.2521 9.07955C48.0646 8.84659 47.8175 8.66193 47.5107 8.52557C47.2095 8.38352 46.8487 8.3125 46.4283 8.3125C45.8658 8.3125 45.3913 8.43182 45.005 8.67045C44.6186 8.90341 44.4254 9.21591 44.4254 9.60795C44.4254 9.92045 44.5504 10.1847 44.8004 10.4006C45.0504 10.6165 45.4794 10.7898 46.0874 10.9205L48.4567 11.3977C49.7294 11.6591 50.6783 12.0795 51.3033 12.6591C51.9283 13.2386 52.2408 14 52.2408 14.9432C52.2408 15.8011 51.9879 16.554 51.4822 17.2017C50.9822 17.8494 50.2947 18.3551 49.4197 18.7188C48.5504 19.0767 47.5476 19.2557 46.4112 19.2557C44.6783 19.2557 43.2976 18.8949 42.2692 18.1733C41.2464 17.446 40.647 16.4574 40.4709 15.2074L44.0419 15.0199C44.1499 15.5483 44.4112 15.9517 44.826 16.2301C45.2408 16.5028 45.772 16.6392 46.4197 16.6392C47.0561 16.6392 47.5675 16.517 47.9538 16.2727C48.3459 16.0227 48.5447 15.7017 48.5504 15.3097C48.5447 14.9801 48.4055 14.7102 48.1328 14.5C47.8601 14.2841 47.4396 14.1193 46.8714 14.0057L44.6044 13.554C43.326 13.2983 42.3743 12.8551 41.7493 12.2244C41.13 11.5937 40.8203 10.7898 40.8203 9.8125C40.8203 8.97159 41.0476 8.24716 41.5021 7.6392C41.9624 7.03125 42.6072 6.5625 43.4368 6.23295C44.272 5.90341 45.2493 5.73864 46.3686 5.73864C48.022 5.73864 49.3232 6.08807 50.272 6.78693C51.2266 7.4858 51.7834 8.4375 51.9425 9.64205ZM63.7124 11.4318V19H60.0817V1.54545H63.6101V8.21875H63.7635C64.0589 7.44602 64.5362 6.84091 65.1953 6.40341C65.8544 5.96023 66.6811 5.73864 67.6754 5.73864C68.5845 5.73864 69.3771 5.9375 70.0533 6.33523C70.7351 6.72727 71.2635 7.29261 71.6385 8.03125C72.0192 8.7642 72.2067 9.64205 72.201 10.6648V19H68.5703V11.3125C68.576 10.5057 68.3714 9.87784 67.9567 9.42898C67.5476 8.98011 66.9737 8.75568 66.2351 8.75568C65.7408 8.75568 65.3033 8.8608 64.9226 9.07102C64.5476 9.28125 64.2521 9.58807 64.0362 9.99148C63.826 10.3892 63.718 10.8693 63.7124 11.4318ZM84.2436 11.4318V19H80.6129V5.90909H84.0732V8.21875H84.2266C84.5163 7.45739 85.0021 6.85511 85.6839 6.41193C86.3658 5.96307 87.1925 5.73864 88.1641 5.73864C89.0732 5.73864 89.8658 5.9375 90.5419 6.33523C91.218 6.73295 91.7436 7.30114 92.1186 8.03977C92.4936 8.77273 92.6811 9.64773 92.6811 10.6648V19H89.0504V11.3125C89.0561 10.5114 88.8516 9.88636 88.4368 9.4375C88.022 8.98295 87.451 8.75568 86.7237 8.75568C86.2351 8.75568 85.8033 8.8608 85.4283 9.07102C85.0589 9.28125 84.7692 9.58807 84.5589 9.99148C84.3544 10.3892 84.2493 10.8693 84.2436 11.4318ZM109.492 13.4261V5.90909H113.123V19H109.637V16.6222H109.501C109.205 17.3892 108.714 18.0057 108.026 18.4716C107.344 18.9375 106.512 19.1705 105.529 19.1705C104.654 19.1705 103.884 18.9716 103.219 18.5739C102.555 18.1761 102.035 17.6108 101.66 16.8778C101.29 16.1449 101.103 15.267 101.097 14.2443V5.90909H104.728V13.5966C104.734 14.3693 104.941 14.9801 105.35 15.429C105.759 15.8778 106.308 16.1023 106.995 16.1023C107.433 16.1023 107.842 16.0028 108.222 15.804C108.603 15.5994 108.91 15.2983 109.143 14.9006C109.381 14.5028 109.498 14.0114 109.492 13.4261Z" fill="black"/>
<path d="M143.244 10.2727C143.244 12.1761 142.884 13.7955 142.162 15.1307C141.446 16.4659 140.469 17.4858 139.23 18.1903C137.997 18.8892 136.611 19.2386 135.071 19.2386C133.52 19.2386 132.128 18.8864 130.895 18.1818C129.662 17.4773 128.688 16.4574 127.972 15.1222C127.256 13.7869 126.898 12.1705 126.898 10.2727C126.898 8.36932 127.256 6.75 127.972 5.41477C128.688 4.07955 129.662 3.0625 130.895 2.36364C132.128 1.65909 133.52 1.30682 135.071 1.30682C136.611 1.30682 137.997 1.65909 139.23 2.36364C140.469 3.0625 141.446 4.07955 142.162 5.41477C142.884 6.75 143.244 8.36932 143.244 10.2727ZM139.503 10.2727C139.503 9.03977 139.318 8 138.949 7.15341C138.585 6.30682 138.071 5.66477 137.406 5.22727C136.741 4.78977 135.963 4.57102 135.071 4.57102C134.179 4.57102 133.401 4.78977 132.736 5.22727C132.071 5.66477 131.554 6.30682 131.185 7.15341C130.821 8 130.639 9.03977 130.639 10.2727C130.639 11.5057 130.821 12.5455 131.185 13.392C131.554 14.2386 132.071 14.8807 132.736 15.3182C133.401 15.7557 134.179 15.9744 135.071 15.9744C135.963 15.9744 136.741 15.7557 137.406 15.3182C138.071 14.8807 138.585 14.2386 138.949 13.392C139.318 12.5455 139.503 11.5057 139.503 10.2727ZM156.288 19.2131C155.294 19.2131 154.393 18.9574 153.587 18.446C152.786 17.929 152.149 17.1705 151.678 16.1705C151.212 15.1648 150.979 13.9318 150.979 12.4716C150.979 10.9716 151.22 9.72443 151.703 8.73011C152.186 7.73011 152.828 6.98295 153.629 6.48864C154.436 5.98864 155.32 5.73864 156.28 5.73864C157.013 5.73864 157.624 5.86364 158.112 6.11364C158.607 6.35795 159.004 6.66477 159.305 7.03409C159.612 7.39773 159.845 7.75568 160.004 8.10795H160.115V1.54545H163.737V19H160.158V16.9034H160.004C159.834 17.267 159.592 17.6278 159.28 17.9858C158.973 18.3381 158.572 18.6307 158.078 18.8636C157.589 19.0966 156.993 19.2131 156.288 19.2131ZM157.439 16.3239C158.024 16.3239 158.518 16.1648 158.922 15.8466C159.331 15.5227 159.643 15.071 159.859 14.4915C160.081 13.9119 160.192 13.233 160.192 12.4545C160.192 11.6761 160.084 11 159.868 10.4261C159.652 9.85227 159.339 9.40909 158.93 9.09659C158.521 8.78409 158.024 8.62784 157.439 8.62784C156.842 8.62784 156.339 8.78977 155.93 9.11364C155.521 9.4375 155.212 9.88636 155.001 10.4602C154.791 11.0341 154.686 11.6989 154.686 12.4545C154.686 13.2159 154.791 13.8892 155.001 14.4744C155.217 15.054 155.527 15.5085 155.93 15.8381C156.339 16.1619 156.842 16.3239 157.439 16.3239ZM174.518 23.9091C174.058 23.9091 173.626 23.8722 173.223 23.7983C172.825 23.7301 172.496 23.642 172.234 23.5341L173.053 20.8239C173.479 20.9545 173.862 21.0256 174.203 21.0369C174.55 21.0483 174.848 20.9688 175.098 20.7983C175.354 20.6278 175.561 20.3381 175.72 19.929L175.933 19.375L171.237 5.90909H175.055L177.766 15.5227H177.902L180.638 5.90909H184.482L179.393 20.4148C179.149 21.1193 178.817 21.733 178.396 22.2557C177.982 22.7841 177.456 23.1903 176.82 23.4744C176.183 23.7642 175.416 23.9091 174.518 23.9091ZM202.786 9.64205L199.462 9.84659C199.406 9.5625 199.283 9.30682 199.096 9.07955C198.908 8.84659 198.661 8.66193 198.354 8.52557C198.053 8.38352 197.692 8.3125 197.272 8.3125C196.71 8.3125 196.235 8.43182 195.849 8.67045C195.462 8.90341 195.269 9.21591 195.269 9.60795C195.269 9.92045 195.394 10.1847 195.644 10.4006C195.894 10.6165 196.323 10.7898 196.931 10.9205L199.3 11.3977C200.573 11.6591 201.522 12.0795 202.147 12.6591C202.772 13.2386 203.085 14 203.085 14.9432C203.085 15.8011 202.832 16.554 202.326 17.2017C201.826 17.8494 201.138 18.3551 200.263 18.7188C199.394 19.0767 198.391 19.2557 197.255 19.2557C195.522 19.2557 194.141 18.8949 193.113 18.1733C192.09 17.446 191.491 16.4574 191.315 15.2074L194.886 15.0199C194.994 15.5483 195.255 15.9517 195.67 16.2301C196.085 16.5028 196.616 16.6392 197.263 16.6392C197.9 16.6392 198.411 16.517 198.798 16.2727C199.19 16.0227 199.388 15.7017 199.394 15.3097C199.388 14.9801 199.249 14.7102 198.977 14.5C198.704 14.2841 198.283 14.1193 197.715 14.0057L195.448 13.554C194.17 13.2983 193.218 12.8551 192.593 12.2244C191.974 11.5937 191.664 10.7898 191.664 9.8125C191.664 8.97159 191.891 8.24716 192.346 7.6392C192.806 7.03125 193.451 6.5625 194.281 6.23295C195.116 5.90341 196.093 5.73864 197.212 5.73864C198.866 5.73864 200.167 6.08807 201.116 6.78693C202.07 7.4858 202.627 8.4375 202.786 9.64205ZM221.817 9.64205L218.494 9.84659C218.437 9.5625 218.315 9.30682 218.127 9.07955C217.94 8.84659 217.692 8.66193 217.386 8.52557C217.085 8.38352 216.724 8.3125 216.303 8.3125C215.741 8.3125 215.266 8.43182 214.88 8.67045C214.494 8.90341 214.3 9.21591 214.3 9.60795C214.3 9.92045 214.425 10.1847 214.675 10.4006C214.925 10.6165 215.354 10.7898 215.962 10.9205L218.332 11.3977C219.604 11.6591 220.553 12.0795 221.178 12.6591C221.803 13.2386 222.116 14 222.116 14.9432C222.116 15.8011 221.863 16.554 221.357 17.2017C220.857 17.8494 220.17 18.3551 219.295 18.7188C218.425 19.0767 217.423 19.2557 216.286 19.2557C214.553 19.2557 213.173 18.8949 212.144 18.1733C211.121 17.446 210.522 16.4574 210.346 15.2074L213.917 15.0199C214.025 15.5483 214.286 15.9517 214.701 16.2301C215.116 16.5028 215.647 16.6392 216.295 16.6392C216.931 16.6392 217.442 16.517 217.829 16.2727C218.221 16.0227 218.42 15.7017 218.425 15.3097C218.42 14.9801 218.281 14.7102 218.008 14.5C217.735 14.2841 217.315 14.1193 216.746 14.0057L214.479 13.554C213.201 13.2983 212.249 12.8551 211.624 12.2244C211.005 11.5937 210.695 10.7898 210.695 9.8125C210.695 8.97159 210.923 8.24716 211.377 7.6392C211.837 7.03125 212.482 6.5625 213.312 6.23295C214.147 5.90341 215.124 5.73864 216.244 5.73864C217.897 5.73864 219.198 6.08807 220.147 6.78693C221.102 7.4858 221.658 8.4375 221.817 9.64205ZM235.923 19.2557C234.576 19.2557 233.417 18.983 232.445 18.4375C231.479 17.8864 230.735 17.108 230.212 16.1023C229.69 15.0909 229.428 13.8949 229.428 12.5142C229.428 11.1676 229.69 9.9858 230.212 8.96875C230.735 7.9517 231.471 7.15909 232.42 6.59091C233.374 6.02273 234.494 5.73864 235.778 5.73864C236.641 5.73864 237.445 5.87784 238.19 6.15625C238.94 6.42898 239.593 6.84091 240.15 7.39205C240.712 7.94318 241.15 8.63636 241.462 9.47159C241.775 10.3011 241.931 11.2727 241.931 12.3864V13.3835H230.877V11.1335H238.513C238.513 10.6108 238.4 10.1477 238.173 9.74432C237.945 9.34091 237.63 9.02557 237.227 8.7983C236.829 8.56534 236.366 8.44886 235.837 8.44886C235.286 8.44886 234.798 8.5767 234.371 8.83239C233.951 9.08239 233.621 9.42045 233.383 9.84659C233.144 10.267 233.022 10.7358 233.016 11.2528V13.392C233.016 14.0398 233.136 14.5994 233.374 15.071C233.619 15.5426 233.962 15.9062 234.406 16.1619C234.849 16.4176 235.374 16.5455 235.982 16.5455C236.386 16.5455 236.755 16.4886 237.09 16.375C237.425 16.2614 237.712 16.0909 237.951 15.8636C238.19 15.6364 238.371 15.358 238.496 15.0284L241.854 15.25C241.684 16.0568 241.335 16.7614 240.806 17.3636C240.283 17.9602 239.607 18.4261 238.778 18.7614C237.954 19.0909 237.002 19.2557 235.923 19.2557ZM258.25 13.4261V5.90909H261.881V19H258.395V16.6222H258.259C257.963 17.3892 257.472 18.0057 256.784 18.4716C256.102 18.9375 255.27 19.1705 254.287 19.1705C253.412 19.1705 252.642 18.9716 251.977 18.5739C251.313 18.1761 250.793 17.6108 250.418 16.8778C250.048 16.1449 249.861 15.267 249.855 14.2443V5.90909H253.486V13.5966C253.491 14.3693 253.699 14.9801 254.108 15.429C254.517 15.8778 255.065 16.1023 255.753 16.1023C256.19 16.1023 256.599 16.0028 256.98 15.804C257.361 15.5994 257.668 15.2983 257.901 14.9006C258.139 14.5028 258.256 14.0114 258.25 13.4261ZM281.232 9.64205L277.908 9.84659C277.851 9.5625 277.729 9.30682 277.541 9.07955C277.354 8.84659 277.107 8.66193 276.8 8.52557C276.499 8.38352 276.138 8.3125 275.717 8.3125C275.155 8.3125 274.68 8.43182 274.294 8.67045C273.908 8.90341 273.714 9.21591 273.714 9.60795C273.714 9.92045 273.839 10.1847 274.089 10.4006C274.339 10.6165 274.768 10.7898 275.376 10.9205L277.746 11.3977C279.018 11.6591 279.967 12.0795 280.592 12.6591C281.217 13.2386 281.53 14 281.53 14.9432C281.53 15.8011 281.277 16.554 280.771 17.2017C280.271 17.8494 279.584 18.3551 278.709 18.7188C277.839 19.0767 276.837 19.2557 275.7 19.2557C273.967 19.2557 272.587 18.8949 271.558 18.1733C270.536 17.446 269.936 16.4574 269.76 15.2074L273.331 15.0199C273.439 15.5483 273.7 15.9517 274.115 16.2301C274.53 16.5028 275.061 16.6392 275.709 16.6392C276.345 16.6392 276.857 16.517 277.243 16.2727C277.635 16.0227 277.834 15.7017 277.839 15.3097C277.834 14.9801 277.695 14.7102 277.422 14.5C277.149 14.2841 276.729 14.1193 276.161 14.0057L273.893 13.554C272.615 13.2983 271.663 12.8551 271.038 12.2244C270.419 11.5937 270.109 10.7898 270.109 9.8125C270.109 8.97159 270.337 8.24716 270.791 7.6392C271.251 7.03125 271.896 6.5625 272.726 6.23295C273.561 5.90341 274.538 5.73864 275.658 5.73864C277.311 5.73864 278.612 6.08807 279.561 6.78693C280.516 7.4858 281.072 8.4375 281.232 9.64205Z" fill="#3FD0D4"/>
</g>
<defs>
<filter id="filter0_d_2_7" x="0.571014" y="0.548294" width="284.959" height="31.3608" filterUnits="userSpaceOnUse" color-interpolation-filters="sRGB">
<feFlood flood-opacity="0" result="BackgroundImageFix"/>
<feColorMatrix in="SourceAlpha" type="matrix" values="0 0 0 0 0 0 0 0 0 0 0 0 0 0 0 0 0 0 127 0" result="hardAlpha"/>
<feOffset dy="4"/>
<feGaussianBlur stdDeviation="2"/>
<feComposite in2="hardAlpha" operator="out"/>
<feColorMatrix type="matrix" values="0 0 0 0 0 0 0 0 0 0 0 0 0 0 0 0 0 0 0.25 0"/>
<feBlend mode="normal" in2="BackgroundImageFix" result="effect1_dropShadow_2_7"/>
<feBlend mode="normal" in="SourceGraphic" in2="effect1_dropShadow_2_7" result="shape"/>
</filter>
</defs>
</svg>

